<svg width="407" height="104" viewBox="0 0 407 104" fill="none" xmlns="http://www.w3.org/2000/svg">
<path d="M152.528 82.1852C149.033 82.1852 145.675 81.6382 142.454 80.5442C139.233 79.4501 136.421 77.8851 134.021 75.849C131.62 73.7825 129.903 71.3361 128.87 68.5099L137.759 65.1822C138.275 66.6409 139.263 67.9477 140.722 69.1025C142.211 70.2269 143.973 71.1082 146.009 71.7464C148.076 72.3845 150.249 72.7036 152.528 72.7036C154.959 72.7036 157.238 72.3086 159.366 71.5184C161.523 70.7283 163.256 69.6343 164.562 68.2364C165.899 66.8384 166.568 65.1974 166.568 63.3132C166.568 61.3683 165.869 59.7729 164.471 58.5269C163.104 57.2809 161.341 56.2932 159.183 55.5639C157.056 54.8345 154.838 54.2875 152.528 53.9229C148.061 53.1935 144.049 52.1299 140.494 50.7319C136.969 49.334 134.173 47.3739 132.106 44.8516C130.07 42.3292 129.052 39.0471 129.052 35.0053C129.052 31.2066 130.131 27.8942 132.289 25.0679C134.477 22.2417 137.348 20.0536 140.904 18.5038C144.49 16.9235 148.365 16.1334 152.528 16.1334C155.962 16.1334 159.274 16.6804 162.465 17.7744C165.687 18.838 168.513 20.4031 170.944 22.4696C173.406 24.5057 175.168 26.9825 176.232 29.8999L167.252 33.1364C166.735 31.6473 165.747 30.3557 164.289 29.2617C162.83 28.1373 161.067 27.256 159.001 26.6178C156.965 25.9796 154.807 25.6605 152.528 25.6605C150.097 25.6301 147.818 26.0252 145.69 26.8457C143.593 27.6358 141.876 28.7299 140.539 30.1278C139.202 31.5257 138.534 33.1516 138.534 35.0053C138.534 37.2845 139.157 39.0168 140.403 40.2019C141.649 41.3871 143.32 42.2684 145.417 42.8458C147.544 43.3929 149.914 43.8943 152.528 44.3501C156.722 45.0187 160.596 46.1279 164.152 47.6778C167.738 49.2277 170.61 51.2942 172.767 53.8773C174.956 56.43 176.05 59.5753 176.05 63.3132C176.05 67.0816 174.956 70.394 172.767 73.2506C170.61 76.0769 167.738 78.2801 164.152 79.8604C160.596 81.4103 156.722 82.1852 152.528 82.1852ZM219.492 35.4156H228.973V81H219.446L219.082 74.3903C217.745 76.7303 215.936 78.6144 213.657 80.0427C211.378 81.471 208.688 82.1852 205.589 82.1852C202.246 82.1852 199.101 81.5622 196.153 80.3162C193.205 79.0399 190.607 77.2773 188.358 75.0284C186.139 72.7796 184.407 70.1965 183.161 67.2791C181.915 64.3313 181.292 61.1708 181.292 57.7975C181.292 54.5458 181.9 51.4917 183.116 48.6351C184.331 45.748 186.018 43.2257 188.175 41.068C190.333 38.9104 192.825 37.2238 195.651 36.0082C198.508 34.7622 201.562 34.1392 204.814 34.1392C208.126 34.1392 211.044 34.899 213.566 36.4184C216.119 37.9075 218.231 39.8221 219.902 42.1621L219.492 35.4156ZM205.361 73.0227C208.035 73.0227 210.375 72.3694 212.381 71.0626C214.386 69.7255 215.936 67.9325 217.03 65.6836C218.155 63.4348 218.717 60.9429 218.717 58.2078C218.717 55.4423 218.155 52.9352 217.03 50.6864C215.906 48.4375 214.341 46.6597 212.335 45.353C210.36 44.0158 208.035 43.3473 205.361 43.3473C202.717 43.3473 200.301 44.0158 198.113 45.353C195.925 46.6901 194.193 48.4831 192.916 50.7319C191.64 52.9808 191.002 55.4727 191.002 58.2078C191.002 60.9732 191.655 63.4804 192.962 65.7292C194.299 67.9477 196.046 69.7255 198.204 71.0626C200.392 72.3694 202.778 73.0227 205.361 73.0227ZM278.053 52.4186V81H268.571V54.7434C268.571 52.7073 268.07 50.8535 267.067 49.1821C266.094 47.5106 264.772 46.1887 263.101 45.2162C261.46 44.2134 259.606 43.7119 257.54 43.7119C255.534 43.7119 253.695 44.2134 252.024 45.2162C250.353 46.1887 249.015 47.5106 248.013 49.1821C247.01 50.8535 246.508 52.7073 246.508 54.7434V81H237.027V35.4156H246.508V40.2475C248.089 38.3634 250.033 36.8743 252.343 35.7803C254.653 34.6862 257.145 34.1392 259.819 34.1392C263.192 34.1392 266.262 34.9597 269.027 36.6008C271.792 38.2418 273.98 40.4451 275.591 43.2105C277.232 45.976 278.053 49.0453 278.053 52.4186ZM299.784 81.8661C297.383 81.7142 295.043 81.2279 292.764 80.4074C290.485 79.5869 288.479 78.4777 286.747 77.0797C285.045 75.6514 283.769 73.98 282.918 72.0655L290.986 68.601C291.381 69.4216 292.065 70.2269 293.038 71.017C294.04 71.8071 295.21 72.4605 296.548 72.9771C297.885 73.4634 299.283 73.7065 300.741 73.7065C302.17 73.7065 303.492 73.509 304.707 73.1139C305.953 72.6884 306.971 72.0503 307.761 71.1994C308.551 70.3484 308.947 69.3304 308.947 68.1452C308.947 66.8081 308.491 65.7748 307.579 65.0455C306.698 64.2857 305.588 63.7083 304.251 63.3132C302.914 62.9182 301.577 62.5383 300.24 62.1736C297.262 61.5051 294.527 60.5934 292.035 59.4386C289.573 58.2534 287.613 56.7491 286.154 54.9257C284.696 53.0719 283.966 50.8079 283.966 48.1336C283.966 45.2162 284.756 42.6939 286.337 40.5666C287.917 38.409 289.983 36.7527 292.536 35.5979C295.119 34.4431 297.87 33.8657 300.787 33.8657C304.434 33.8657 307.777 34.6406 310.816 36.1905C313.854 37.7404 316.179 39.8677 317.79 42.5723L310.268 47.0396C309.813 46.1279 309.129 45.3074 308.217 44.5781C307.306 43.8487 306.272 43.2713 305.117 42.8458C303.963 42.39 302.762 42.1317 301.516 42.0709C299.966 42.0101 298.523 42.1925 297.186 42.6179C295.879 43.013 294.831 43.6512 294.04 44.5325C293.25 45.4138 292.855 46.5382 292.855 47.9057C292.855 49.2429 293.326 50.2457 294.268 50.9143C295.21 51.5525 296.396 52.0691 297.824 52.4642C299.283 52.8592 300.772 53.2999 302.291 53.7861C304.996 54.637 307.533 55.6855 309.904 56.9314C312.274 58.147 314.189 59.6513 315.647 61.4443C317.106 63.2373 317.805 65.4253 317.744 68.0084C317.744 70.8651 316.878 73.3722 315.146 75.5299C313.444 77.6875 311.226 79.3286 308.491 80.453C305.756 81.5774 302.853 82.0484 299.784 81.8661ZM338.182 81.8661C335.781 81.7142 333.441 81.2279 331.162 80.4074C328.883 79.5869 326.877 78.4777 325.145 77.0797C323.443 75.6514 322.167 73.98 321.316 72.0655L329.384 68.601C329.78 69.4216 330.463 70.2269 331.436 71.017C332.439 71.8071 333.609 72.4605 334.946 72.9771C336.283 73.4634 337.681 73.7065 339.14 73.7065C340.568 73.7065 341.89 73.509 343.105 73.1139C344.351 72.6884 345.369 72.0503 346.16 71.1994C346.95 70.3484 347.345 69.3304 347.345 68.1452C347.345 66.8081 346.889 65.7748 345.977 65.0455C345.096 64.2857 343.987 63.7083 342.65 63.3132C341.312 62.9182 339.975 62.5383 338.638 62.1736C335.66 61.5051 332.925 60.5934 330.433 59.4386C327.971 58.2534 326.011 56.7491 324.553 54.9257C323.094 53.0719 322.364 50.8079 322.364 48.1336C322.364 45.2162 323.155 42.6939 324.735 40.5666C326.315 38.409 328.382 36.7527 330.934 35.5979C333.517 34.4431 336.268 33.8657 339.185 33.8657C342.832 33.8657 346.175 34.6406 349.214 36.1905C352.253 37.7404 354.577 39.8677 356.188 42.5723L348.667 47.0396C348.211 46.1279 347.527 45.3074 346.615 44.5781C345.704 43.8487 344.67 43.2713 343.516 42.8458C342.361 42.39 341.16 42.1317 339.914 42.0709C338.365 42.0101 336.921 42.1925 335.584 42.6179C334.277 43.013 333.229 43.6512 332.439 44.5325C331.649 45.4138 331.253 46.5382 331.253 47.9057C331.253 49.2429 331.724 50.2457 332.667 50.9143C333.609 51.5525 334.794 52.0691 336.222 52.4642C337.681 52.8592 339.17 53.2999 340.689 53.7861C343.394 54.637 345.932 55.6855 348.302 56.9314C350.672 58.147 352.587 59.6513 354.046 61.4443C355.504 63.2373 356.203 65.4253 356.143 68.0084C356.143 70.8651 355.276 73.3722 353.544 75.5299C351.842 77.6875 349.624 79.3286 346.889 80.453C344.154 81.5774 341.252 82.0484 338.182 81.8661ZM392.083 35.4156H402.202L377.222 103.792H367.148L375.399 81L359.034 35.4156H369.382L380.14 68.0084L392.083 35.4156Z" fill="#2D82FE"/>
<path fill-rule="evenodd" clip-rule="evenodd" d="M98.4391 55.4973C94.4399 57.1212 90.3894 57.9626 86.2876 58.0217C79.4363 58.0696 72.9686 54.8001 66.8846 48.2134L72.701 42.3815C76.0516 45.9623 79.4352 48.2991 82.8515 49.3919C86.2914 50.3575 89.6676 50.4231 92.9801 49.5887C94.975 49.0668 96.9054 48.3391 98.7712 47.4055C98.4207 38.6031 95.7673 30.393 91.3968 23.3613C90.7383 23.6401 90.0659 23.9363 89.3796 24.25L83.5558 26.9224C79.6732 28.704 75.9226 29.9508 72.3038 30.6627C68.6332 31.2992 65.2428 31.1324 62.1328 30.162C59.0981 29.1398 56.4921 27.0456 54.3148 23.8794C51.0488 19.13 50.3296 14.1282 52.1573 8.87407C53.2017 5.96221 54.8904 3.20921 57.2233 0.61508C54.677 0.210265 52.0658 0 49.4055 0C42.905 0 36.6977 1.25543 31.0129 3.53706C35.356 4.41428 39.3588 6.69115 43.0214 10.3677L37.622 16.0793C33.8614 12.2253 29.9266 10.3786 25.8177 10.5393C22.2014 10.6368 18.5096 11.8574 14.7421 14.201C10.4136 18.4634 6.86749 23.518 4.33878 29.1299C4.51896 30.7294 5.14149 32.3035 6.20639 33.852C8.28004 36.8675 10.9402 38.3138 14.1867 38.1909C17.3815 37.9927 21.1722 36.8849 25.5589 34.8676L31.3827 32.1952C35.5668 30.2063 39.5813 28.7781 43.4263 27.9106C47.2194 26.9678 50.7086 26.9556 53.8941 27.8741C57.1549 28.7407 59.9777 30.908 62.3624 34.3758C65.9394 39.5775 66.7529 44.9586 64.8027 50.519C62.8007 56.0041 58.445 61.0535 51.7355 65.6674C45.1015 70.2294 38.3211 72.5603 31.3944 72.66C24.543 72.7079 18.0754 69.4385 11.9914 62.8517L17.8077 57.0199C21.1584 60.6007 24.5419 62.9375 27.9583 64.0303C31.3982 64.9959 34.7744 65.0615 38.0869 64.2271C41.4748 63.3408 44.6764 61.8609 47.6919 59.7872C52.2151 56.6767 55.2116 53.2837 56.6814 49.6081C58.1747 45.8053 57.8067 42.2831 55.5776 39.0415C53.2966 35.7244 50.3961 34.3324 46.8763 34.8652C43.4318 35.3462 39.3018 36.6873 34.4864 38.8884L28.6626 41.5608C24.78 43.3424 21.0294 44.5891 17.4106 45.3011C13.74 45.9376 10.3496 45.7707 7.23957 44.8004C4.83305 43.9898 2.69611 42.505 0.828748 40.3461C0.28449 43.283 0 46.311 0 49.4055C0 76.6914 22.1196 98.8109 49.4055 98.8109C74.6288 98.8109 95.4373 79.9091 98.4391 55.4973ZM65.4146 2.65146C62.8526 4.85729 61.0511 7.18565 60.01 9.63654C58.6109 12.9304 58.9741 16.1228 61.0996 19.2137C63.1732 22.2292 65.8334 23.6755 69.08 23.5526C72.2747 23.3543 76.0654 22.2465 80.4521 20.2293L86.2759 17.5569C86.491 17.4547 86.7055 17.3539 86.9197 17.2547C81.2415 10.6355 73.8417 5.5363 65.4146 2.65146Z" fill="#2D82FE"/>
</svg>
