<svg width="21" height="23" viewBox="0 0 21 23" fill="none" xmlns="http://www.w3.org/2000/svg">
<path d="M10.6743 4.95356C12.6787 4.95356 14.0308 5.81936 14.8017 6.54284L17.8142 3.60148C15.964 1.88174 13.5563 0.826172 10.6743 0.826172C6.49947 0.826172 2.89394 3.22195 1.13861 6.70888L4.58996 9.38931C5.45576 6.81562 7.85154 4.95356 10.6743 4.95356Z" fill="#EA4335"/>
<path d="M20.9216 11.7376C20.9216 10.86 20.8504 10.2195 20.6962 9.55535H10.6743V13.5167H16.557C16.4384 14.5011 15.7979 15.9836 14.3747 16.9799L17.743 19.5892C19.7593 17.7271 20.9216 14.9874 20.9216 11.7376Z" fill="#4285F4"/>
<path d="M4.6018 13.6115C4.37645 12.9474 4.24599 12.2358 4.24599 11.5004C4.24599 10.7651 4.37648 10.0535 4.58996 9.38931L1.13861 6.70888C0.415136 8.15584 0 9.78067 0 11.5004C0 13.2202 0.41511 14.845 1.13859 16.292L4.6018 13.6115Z" fill="#FBBC05"/>
<path d="M10.6742 22.1747C13.5563 22.1747 15.9758 21.2259 17.743 19.5892L14.3747 16.9799C13.4733 17.6085 12.2635 18.0473 10.6742 18.0473C7.8515 18.0473 5.45574 16.1852 4.6018 13.6115L1.15043 16.292C2.90575 19.7789 6.49942 22.1747 10.6742 22.1747Z" fill="#34A853"/>
</svg>
